<?xml version="1.0" standalone="no"?>
<!DOCTYPE svg PUBLIC "-//W3C//DTD SVG 1.1//EN" "http://www.w3.org/Graphics/SVG/1.1/DTD/svg11.dtd" >
<svg xmlns="http://www.w3.org/2000/svg">
<metadata></metadata>
<defs>
<font id="thesans_7-boldcaps" horiz-adv-x="1440" >
<font-face units-per-em="2048" ascent="1638" descent="-410" />
<missing-glyph horiz-adv-x="446" />
<glyph horiz-adv-x="0" />
<glyph unicode="&#xd;" horiz-adv-x="0" />
<glyph unicode=" "  horiz-adv-x="446" />
<glyph unicode="&#x09;" horiz-adv-x="446" />
<glyph unicode="&#xa0;" horiz-adv-x="446" />
<glyph unicode="!" horiz-adv-x="565" d="M127 66q0 58 43.5 100.5t114.5 42.5q68 0 112.5 -41.5t44.5 -101.5q0 -56 -47 -99t-110 -43q-67 0 -112.5 40t-45.5 102zM139 1155h291l-29 -876h-229z" />
<glyph unicode="&#x22;" horiz-adv-x="829" d="M90 1534h262l-33 -520h-196zM477 1534h262l-34 -520h-195z" />
<glyph unicode="#" horiz-adv-x="1421" d="M55 360v193h287l33 305h-260v193h280l35 331h225l-34 -331h251l33 331h228l-33 -331h266v-193h-287l-32 -305h260v-193h-281l-37 -360h-227l37 360h-250l-39 -360h-225l39 360h-269zM569 553h250l33 305h-250z" />
<glyph unicode="$" horiz-adv-x="1112" d="M55 993q0 103 52 190.5t154.5 144t248.5 71.5l14 223h189l-15 -221q125 -3 242 -39l-31 -219q-105 38 -229 45l-18 -365q131 -36 219.5 -85.5t139 -126t50.5 -181.5q0 -120 -56 -215t-162.5 -154t-248.5 -75l-18 -295h-191l21 291q-164 3 -291 45l27 264q116 -58 282 -70 l21 369q-141 34 -228 85t-129.5 129t-42.5 189zM336 1020q0 -56 32 -92.5t107 -61.5l17 312q-68 -5 -112 -47t-44 -111zM623 217q71 9 116 51.5t45 114.5q0 61 -34 102.5t-111 67.5z" />
<glyph unicode="%" horiz-adv-x="1665" d="M74 1063q0 111 47.5 193.5t127.5 125.5t173 43q150 0 242 -82.5t92 -252.5q0 -167 -104.5 -268t-250.5 -101q-150 0 -238.5 87.5t-88.5 254.5zM233 82l994 1354l188 -136l-993 -1353zM295 1073q0 -91 29.5 -131.5t87.5 -40.5q55 0 90 46t35 128q0 93 -29.5 131.5 t-91.5 38.5q-52 0 -86.5 -45.5t-34.5 -126.5zM899 299q0 165 102 264t244 99q150 0 242 -82.5t92 -253.5q0 -114 -48 -197t-129 -127.5t-175 -44.5q-149 0 -238.5 87.5t-89.5 254.5zM1120 309q0 -91 29.5 -131.5t87.5 -40.5q55 0 89 46.5t34 127.5q0 92 -29 131t-90 39 q-52 0 -86.5 -46.5t-34.5 -125.5z" />
<glyph unicode="&#x26;" horiz-adv-x="1454" d="M80 295q0 191 227 332q-133 140 -133 250q0 84 45 151.5t132.5 106.5t201.5 39q79 0 145 -19.5t110.5 -52.5t69.5 -81.5t25 -105.5q0 -93 -57 -163.5t-152 -133.5q141 -123 281 -223q94 129 94 338h262q0 -132 -39.5 -251t-115.5 -216q138 -94 174 -116l-156 -199 q-134 89 -217 149q-204 -131 -485 -131q-203 0 -307.5 90.5t-104.5 235.5zM346 328q0 -62 51 -104t135 -42q65 0 126.5 18t105.5 46q-184 137 -303 250q-115 -81 -115 -168zM434 889q0 -59 96 -150q119 78 119 156q0 40 -27 64t-79 24q-47 0 -78 -25.5t-31 -68.5z" />
<glyph unicode="'" horiz-adv-x="442" d="M90 1534h262l-33 -520h-196z" />
<glyph unicode="(" horiz-adv-x="627" d="M106 584q0 250 68 501t211 484h244q-88 -149 -145.5 -304t-88 -324.5t-30.5 -346.5q0 -274 68.5 -522.5t201.5 -466.5h-252q-97 156 -159 320t-90 325.5t-28 333.5z" />
<glyph unicode=")" horiz-adv-x="627" d="M0 -395q92 154 150 308.5t88 324t30 350.5q0 134 -17.5 264t-52 254.5t-85 241.5t-113.5 221h252q139 -232 205.5 -481t66.5 -500q0 -173 -28 -337.5t-88.5 -325.5t-159.5 -320h-248z" />
<glyph unicode="*" horiz-adv-x="786" d="M63 1087l207 82l-207 82l93 162l174 -139l-33 221h186l-32 -221l174 139l92 -160l-207 -82l207 -81l-92 -162l-174 139l32 -221h-186l33 221l-176 -139z" />
<glyph unicode="+" horiz-adv-x="1159" d="M49 418v219h406v416h247v-416h408v-219h-408v-418h-247v418h-406z" />
<glyph unicode="," horiz-adv-x="528" d="M55 -258q123 132 123 217q0 52 -39 96q-35 46 -35 97q0 61 43.5 107t114.5 46q73 0 119.5 -55.5t46.5 -147.5q0 -64 -27 -139t-86 -156t-151 -161z" />
<glyph unicode="-" horiz-adv-x="684" d="M90 416v209h504v-209h-504z" />
<glyph unicode="." horiz-adv-x="528" d="M96 143q0 71 49.5 119.5t118.5 48.5t117.5 -48.5t48.5 -119.5q0 -70 -48 -119t-118 -49t-119 49t-49 119z" />
<glyph unicode="/" horiz-adv-x="870" d="M49 0l529 1382h256l-527 -1382h-258z" />
<glyph unicode="0" horiz-adv-x="1204" d="M74 686q0 230 73 392t197 242.5t270 80.5q133 0 231.5 -46.5t161.5 -135.5t93 -217.5t30 -294.5q0 -239 -76.5 -403.5t-200 -243t-265.5 -78.5q-233 0 -373.5 166t-140.5 538zM352 705q0 -253 58 -377.5t188 -124.5q70 0 127.5 51t92 162.5t34.5 281.5q0 172 -26.5 279 t-79.5 156t-136 49q-119 0 -188.5 -115t-69.5 -362z" />
<glyph unicode="1" horiz-adv-x="735" d="M39 1266l354 116h193v-1382h-271v1110l-237 -94z" />
<glyph unicode="2" horiz-adv-x="1020" d="M102 0v221l207 234q169 188 233 306t64 210q0 85 -51 138.5t-147 53.5q-63 0 -131.5 -22t-124.5 -56l-39 238q164 80 366 80q135 0 229.5 -50.5t141.5 -138.5t47 -198q0 -68 -18.5 -137.5t-59.5 -147.5t-101.5 -161t-146.5 -181l-122 -143v-2q143 8 489 8v-252h-836z" />
<glyph unicode="3" horiz-adv-x="973" d="M98 6l23 227q79 -26 190 -26q78 0 140 27t94.5 73.5t32.5 106.5q0 42 -15 77t-49 61.5t-86.5 41t-132.5 14.5q-53 0 -135 -10v211q395 0 395 209q0 74 -49.5 119t-145.5 45q-108 0 -227 -58l-20 219q147 60 317 60q125 0 217 -42t138 -117.5t46 -172.5q0 -111 -59 -193 t-162 -120l-2 -6q116 -25 184 -113.5t68 -208.5q0 -133 -68.5 -235.5t-193.5 -158.5t-285 -56q-124 0 -215 26z" />
<glyph unicode="4" horiz-adv-x="1135" d="M35 539l524 843h332v-813h207v-239h-207v-330h-258v330h-561zM289 561q90 4 348 4v565h-2z" />
<glyph unicode="5" horiz-adv-x="944" d="M90 -2l25 233q70 -20 159 -20q94 0 162 29.5t103.5 82.5t35.5 119q0 103 -79 158t-238 55q-72 0 -125 -6v733h684v-249l-438 2v-267q114 0 201 -28t148.5 -79.5t93.5 -124.5t32 -167q0 -110 -42.5 -199.5t-123.5 -154.5t-189.5 -99t-238.5 -34q-88 0 -170 16z" />
<glyph unicode="6" horiz-adv-x="1184" d="M106 565q0 206 54 364.5t151 263.5t227 156.5t281 51.5q111 0 160 -8v-234q-78 17 -164 17q-80 0 -147 -22t-120 -65t-90 -105.5t-59 -147.5l-9.5 -38t-8.5 -32l2 -2q108 121 299 121q129 0 225.5 -52t148.5 -145.5t52 -210.5q0 -113 -38 -205.5t-107.5 -158t-165 -101 t-211.5 -35.5q-220 0 -350 150.5t-130 437.5zM393 444q0 -71 25 -125.5t72 -86t114 -31.5q109 0 169.5 66.5t60.5 172.5q0 105 -56.5 166.5t-163.5 61.5q-65 0 -115.5 -29.5t-78 -80t-27.5 -114.5z" />
<glyph unicode="7" horiz-adv-x="938" d="M45 1126v256h846v-225q-57 -125 -109.5 -265t-100.5 -291.5t-88 -302.5t-71 -298h-293q32 145 80 314t98 319t100.5 282t88.5 215q-45 -1 -221 -2t-330 -2z" />
<glyph unicode="8" horiz-adv-x="1141" d="M82 340q0 59 19.5 110t55 96t79.5 81t96 69q-226 127 -226 324q0 88 35.5 161.5t100.5 124.5t152 78t192 27q129 0 228.5 -44t152.5 -122t53 -174q0 -107 -62 -187.5t-174 -154.5q82 -46 140 -96.5t91.5 -115t33.5 -142.5q0 -95 -39 -170.5t-111 -127t-164.5 -77 t-191.5 -25.5q-108 0 -193.5 26t-145 74t-91 116t-31.5 149zM356 365q0 -78 57 -125t154 -47q92 0 150.5 43.5t58.5 119.5q0 75 -59.5 126.5t-173.5 109.5q-94 -61 -140.5 -110.5t-46.5 -116.5zM373 1047q0 -64 47.5 -110.5t152.5 -102.5q92 56 135.5 107t43.5 108 q0 64 -48 107.5t-139 43.5q-89 0 -140.5 -42t-51.5 -111z" />
<glyph unicode="9" horiz-adv-x="1190" d="M86 911q0 105 36.5 195.5t105 158t162 104t202.5 36.5q112 0 202 -35t154.5 -105t100.5 -185t36 -265q0 -273 -84.5 -460.5t-247.5 -281t-393 -93.5q-52 0 -103 4t-83 10v237q45 -14 97.5 -20t109.5 -6q150 0 245.5 73t133.5 216q5 22 13 54.5t11 45.5l-2 2 q-38 -52 -111.5 -83.5t-168.5 -31.5q-127 0 -220.5 52t-144.5 150t-51 228zM358 948q0 -111 56.5 -173t154.5 -62q97 0 159.5 66.5t62.5 144.5q0 83 -27 141t-74 87.5t-112 29.5t-115 -30.5t-77.5 -85t-27.5 -118.5z" />
<glyph unicode=":" horiz-adv-x="563" d="M115 143q0 47 22.5 85t60 60.5t83.5 22.5t84.5 -23t61 -60.5t22.5 -84.5q0 -69 -49.5 -118.5t-118.5 -49.5t-117.5 49.5t-48.5 118.5zM115 723q0 46 23 84.5t60 61t83 22.5t84.5 -22.5t61 -61t22.5 -84.5q0 -69 -49.5 -118.5t-118.5 -49.5t-117.5 49.5t-48.5 118.5z" />
<glyph unicode=";" horiz-adv-x="563" d="M76 -258q123 132 123 219q0 48 -39 94q-35 41 -35 99q0 60 43 105.5t113 45.5q72 0 118.5 -55.5t46.5 -147.5q0 -63 -27 -138.5t-84.5 -155t-152.5 -162.5zM115 723q0 46 23 84.5t60 61t83 22.5t84.5 -22.5t61 -61t22.5 -84.5q0 -69 -49.5 -118.5t-118.5 -49.5 t-117.5 49.5t-48.5 118.5z" />
<glyph unicode="&#x3c;" horiz-adv-x="1217" d="M43 592l1032 430v-868z" />
<glyph unicode="=" horiz-adv-x="1169" d="M129 217v211h911v-211h-911zM129 608v211h911v-211h-911z" />
<glyph unicode="&#x3e;" horiz-adv-x="1217" d="M141 154v868l1033 -430z" />
<glyph unicode="?" horiz-adv-x="813" d="M92 932l33 233q203 0 340.5 -44.5t205.5 -122.5t68 -177q0 -85 -37.5 -142.5t-111.5 -119.5t-107.5 -101t-33.5 -100q0 -34 16 -79h-260q-27 67 -27 127q0 88 36.5 127.5t134 120t97.5 128.5q0 65 -86.5 108.5t-222.5 43.5q-14 0 -23.5 -0.5t-21.5 -1.5zM184 66 q0 57 44.5 100t115.5 43q69 0 113.5 -41.5t44.5 -101.5q0 -58 -46 -100t-112 -42q-68 0 -114 40t-46 102z" />
<glyph unicode="@" horiz-adv-x="1661" d="M98 616q0 230 106 411t290 282.5t403 101.5q202 0 352 -78t227.5 -210.5t77.5 -295.5q0 -159 -54.5 -268.5t-154 -164t-229.5 -54.5q-96 0 -143 47.5t-47 122.5h-6q-34 -69 -103.5 -119.5t-152.5 -50.5q-191 0 -191 254q0 131 48 239.5t145.5 171t238.5 62.5 q121 0 228 -35l-62 -340q-8 -40 -8 -78q0 -50 21 -72t63 -22q186 0 186 295q0 174 -110 289t-338 115q-115 0 -218.5 -42.5t-180 -120t-119.5 -185.5t-43 -232q0 -147 55 -256t168.5 -168t281.5 -59q174 0 320 53v-193q-61 -24 -162.5 -38.5t-187.5 -14.5q-165 0 -298 46.5 t-222 132.5t-135 208t-46 266zM666 631q0 -59 13 -86t42 -27q58 0 110 83t80 228l15 72q-38 10 -78 10q-57 0 -98 -43.5t-62.5 -109.5t-21.5 -127z" />
<glyph unicode="A" horiz-adv-x="1282" d="M2 0l483 1382h301l494 -1382h-295l-96 283h-522l-97 -283h-268zM434 494h385l-129 362q-44 129 -63 221h-2q-29 -122 -66 -231z" />
<glyph unicode="B" horiz-adv-x="1188" d="M143 0v1380q214 11 467 11q225 0 345 -88t120 -254q0 -102 -60.5 -186.5t-158.5 -123.5v-4q117 -24 181.5 -111t64.5 -198t-54.5 -208t-179 -159.5t-321.5 -62.5q-30 0 -168 2t-236 2zM410 221q64 -8 145 -8q128 0 195 55.5t67 151.5q0 97 -77.5 143.5t-213.5 46.5 q-88 0 -116 -2v-387zM410 811q32 -2 108 -2q133 0 205 52t72 145q0 170 -230 170q-77 0 -155 -5v-360z" />
<glyph unicode="C" horiz-adv-x="1159" d="M78 647q0 223 77.5 391t233.5 261.5t381 93.5q154 0 293 -37l-29 -242q-137 41 -278 41q-126 0 -212.5 -58.5t-129.5 -163.5t-43 -241q0 -150 43 -255.5t133.5 -159.5t226.5 -54q65 0 138 16t130 42l31 -238q-86 -30 -173.5 -45.5t-182.5 -15.5q-174 0 -297.5 53 t-199 146.5t-109 212.5t-33.5 253z" />
<glyph unicode="D" horiz-adv-x="1366" d="M143 2v1378q24 1 119 4.5t182 5t146 1.5q220 0 376 -69t240 -220t84 -387q0 -232 -95.5 -395t-267 -245.5t-399.5 -82.5q-53 1 -111.5 2t-98.5 2t-92.5 3t-82.5 3zM410 229q60 -10 145 -10q134 0 235 51.5t157.5 159t56.5 264.5q0 153 -43.5 258t-139 160t-250.5 55 q-96 0 -161 -6v-932z" />
<glyph unicode="E" horiz-adv-x="1010" d="M143 0v1382h752v-223h-485v-340h460v-217h-460v-375h485v-227h-752z" />
<glyph unicode="F" horiz-adv-x="952" d="M143 0v1382h740v-225h-473v-356h446v-219h-446v-582h-267z" />
<glyph unicode="G" horiz-adv-x="1382" d="M74 659q0 215 94 385t270 264.5t410 94.5q187 0 391 -60l-41 -247q-178 69 -367 69q-136 0 -242.5 -56t-166.5 -165.5t-60 -259.5q0 -221 115 -343t326 -122q98 0 176 25v481h266v-659q-98 -40 -225 -63t-248 -23q-164 0 -292.5 46.5t-219.5 135.5t-138.5 214.5 t-47.5 282.5z" />
<glyph unicode="H" horiz-adv-x="1407" d="M143 0v1382h267v-553h585v553h267v-1382h-267v600h-585v-600h-267z" />
<glyph unicode="I" horiz-adv-x="553" d="M143 0v1382h267v-1382h-267z" />
<glyph unicode="J" horiz-adv-x="686" d="M0 -2v229q55 -20 127 -20q77 0 114.5 42t37.5 148v985h266v-995q0 -87 -19.5 -160.5t-62.5 -128t-115.5 -85.5t-175.5 -31q-78 0 -172 16z" />
<glyph unicode="K" horiz-adv-x="1223" d="M143 0v1382h267v-626l448 626h324l-506 -667l528 -715h-350l-444 664v-664h-267z" />
<glyph unicode="L" horiz-adv-x="879" d="M143 0v1382h267v-1149h448v-233h-715z" />
<glyph unicode="M" horiz-adv-x="1804" d="M66 0l213 1382h311l231 -710q50 -151 76 -291h4q27 138 78 287l238 714h309l215 -1382h-281l-98 659q-25 157 -43 330h-4q-37 -171 -76 -295l-219 -694h-264l-211 641q-67 205 -88 348h-4q-9 -128 -39 -352l-78 -637h-270z" />
<glyph unicode="N" horiz-adv-x="1432" d="M143 0v1382h346l385 -659q62 -104 170 -326q-14 196 -14 555v430h258v-1382h-344l-405 698q-72 127 -150 297q3 -44 6.5 -145.5t4.5 -171t1 -184.5v-494h-258z" />
<glyph unicode="O" d="M68 674q0 167 52.5 303.5t145 231.5t215.5 145.5t262 50.5q140 0 256 -42.5t199.5 -128.5t128.5 -217t45 -306q0 -167 -52 -304.5t-144 -232.5t-215.5 -146t-264.5 -51q-155 0 -273.5 48t-197.5 140t-118 219.5t-39 289.5zM352 702q0 -147 39.5 -256t121 -168t202.5 -59 q69 0 135.5 27.5t120.5 86t85 148t31 209.5q0 154 -42.5 260t-125 160.5t-200.5 54.5q-74 0 -140 -29.5t-117 -87.5t-80.5 -145t-29.5 -201z" />
<glyph unicode="P" horiz-adv-x="1087" d="M143 0v1382q145 9 371 9q170 0 287.5 -50.5t178 -147.5t60.5 -230q0 -99 -36.5 -186.5t-107.5 -154.5t-171.5 -103t-224.5 -36q-58 0 -90 4v-487h-267zM410 711q39 -6 77 -6q83 2 145 30.5t97 83t35 127.5q0 70 -27.5 121t-86 79t-146.5 28q-64 0 -94 -3v-460z" />
<glyph unicode="Q" d="M68 674q0 167 52.5 303.5t145 231.5t215.5 145.5t262 50.5q140 0 256 -42.5t199.5 -128.5t128.5 -217t45 -306q0 -167 -52 -304.5t-144 -232.5t-215.5 -146t-264.5 -51q-155 0 -273.5 48t-197.5 140t-118 219.5t-39 289.5zM352 702q0 -147 39.5 -256t121 -168t202.5 -59 q69 0 135.5 27.5t120.5 86t85 148t31 209.5q0 154 -42.5 260t-125 160.5t-200.5 54.5q-74 0 -140 -29.5t-117 -87.5t-80.5 -145t-29.5 -201zM618 -127q64 8 130 8q78 0 142.5 -10t142.5 -27.5t137.5 -27t127.5 -9.5q66 0 138 11v-234q-90 -14 -172 -14q-70 0 -134 10 t-139.5 27t-137 27t-130.5 10q-49 0 -105 -6v235z" />
<glyph unicode="R" horiz-adv-x="1161" d="M143 0v1382q140 9 398 9q115 0 209 -22t158.5 -68t99 -120.5t34.5 -179.5q0 -98 -44 -180.5t-124 -135t-184 -69.5q21 -28 113 -151l332 -465h-330l-385 571h-10v-571h-267zM410 768q36 -4 96 -4q78 0 137 26t90 74.5t31 110.5q0 199 -250 199q-58 0 -104 -7v-399z" />
<glyph unicode="S" horiz-adv-x="1030" d="M82 989q0 124 62.5 218t182.5 146t281 52q113 0 250 -25l-14 -233q-131 37 -248 37q-113 0 -172 -46t-59 -122q0 -81 54.5 -114t213 -101t236 -147.5t77.5 -225.5q0 -129 -66.5 -232.5t-190.5 -161t-290 -57.5q-70 0 -146 9t-136 24l16 248q142 -49 289 -49 q107 0 173.5 45.5t66.5 136.5q0 86 -58.5 121.5t-213 99.5t-231.5 143.5t-77 233.5z" />
<glyph unicode="T" horiz-adv-x="1044" d="M31 1155v227h983v-227h-359v-1155h-266v1155h-358z" />
<glyph unicode="U" horiz-adv-x="1395" d="M143 479v903h267v-886q0 -144 63 -220.5t223 -76.5q105 0 168.5 31.5t93 100.5t29.5 189v862h264v-845q0 -140 -37.5 -244.5t-112 -175.5t-181.5 -105.5t-242 -34.5q-300 0 -417.5 137t-117.5 365z" />
<glyph unicode="V" horiz-adv-x="1286" d="M6 1382h291l268 -809q55 -155 82 -270h4q21 91 34 136t48 151l273 792h272l-483 -1382h-308z" />
<glyph unicode="W" horiz-adv-x="1948" d="M49 1382h285l188 -764q31 -123 51 -280h2q31 192 54 272l211 772h282l213 -768q38 -136 56 -268h2q22 151 51 264l188 772h266l-352 -1382h-327l-201 762q-25 89 -53 285h-2q-17 -150 -52 -279l-200 -768h-310z" />
<glyph unicode="X" horiz-adv-x="1286" d="M20 0l441 707l-414 675h309l281 -479l278 479h304l-408 -673l455 -709h-336l-297 508l-297 -508h-316z" />
<glyph unicode="Y" horiz-adv-x="1149" d="M6 1382h291l182 -397q54 -119 94 -229h5q11 33 29.5 77t42.5 97t38 82l174 370h283l-440 -893v-489h-267v487z" />
<glyph unicode="Z" horiz-adv-x="1100" d="M92 0v205l498 811q37 61 90 131q-98 -4 -252 -4h-319v239h892v-213l-526 -831q-38 -63 -63 -96q34 4 299 4h299v-246h-918z" />
<glyph unicode="[" horiz-adv-x="672" d="M145 -420v2011h453v-207h-207v-1593h207v-211h-453z" />
<glyph unicode="\" horiz-adv-x="848" d="M33 1382h246l540 -1382h-252z" />
<glyph unicode="]" horiz-adv-x="672" d="M74 -209h205v1593h-205v207h450v-2011h-450v211z" />
<glyph unicode="^" horiz-adv-x="1096" d="M102 782l334 600h203l350 -598l-188 -94l-269 506l-256 -506z" />
<glyph unicode="_" horiz-adv-x="1024" d="M0 -305h1024v-211h-1024v211z" />
<glyph unicode="`" horiz-adv-x="766" d="M170 1346l113 182l356 -225l-92 -152z" />
<glyph unicode="a" horiz-adv-x="1167" d="M33 0l395 1065h313l394 -1065h-291l-66 186h-411l-68 -186h-266zM428 377h287l-92 252q-30 77 -52 157h-2q-22 -87 -47 -151z" />
<glyph unicode="b" horiz-adv-x="1118" d="M160 0v1065q41 0 100.5 1.5t117 2.5t95.5 1.5t111 0.5q403 0 403 -266q0 -53 -19 -98.5t-55.5 -80t-89.5 -55.5v-2q86 -23 132 -86.5t46 -150.5q0 -140 -109.5 -238t-350.5 -98q-43 0 -76 0.5t-73.5 1.5t-95.5 1.5t-136 0.5zM422 190q46 -6 113 -6q95 0 141.5 40 t46.5 108q0 133 -211 133q-63 0 -90 -2v-273zM422 631q31 -2 76 -2q98 0 153.5 35t55.5 102q0 121 -175 121q-35 0 -58.5 -0.5t-51.5 -1.5v-254z" />
<glyph unicode="c" horiz-adv-x="971" d="M78 508q0 116 36 220t108 183t183.5 124.5t258.5 45.5q119 0 217 -26l-23 -232q-102 35 -209 35q-90 0 -155 -40.5t-98.5 -115.5t-33.5 -170q0 -151 80 -232t220 -81q119 0 204 43l23 -233q-137 -45 -279 -45q-130 0 -229.5 36t-167 105t-101.5 165.5t-34 217.5z" />
<glyph unicode="d" horiz-adv-x="1223" d="M160 2v1063q288 6 415 6q179 0 307.5 -53.5t198.5 -169t70 -297.5q0 -143 -46.5 -247.5t-133.5 -173.5t-203 -102.5t-252 -33.5q-160 0 -356 8zM424 221q37 -6 119 -6q95 0 169.5 36.5t116 110t41.5 177.5q0 157 -80.5 237t-240.5 80q-69 0 -125 -6v-629z" />
<glyph unicode="e" horiz-adv-x="940" d="M160 0v1065h655v-207h-391v-213h373v-201h-373v-233h391v-211h-655z" />
<glyph unicode="f" horiz-adv-x="897" d="M160 0v1065h645v-207h-381v-231h360v-203h-360v-424h-264z" />
<glyph unicode="g" horiz-adv-x="1188" d="M74 512q0 118 40.5 222.5t118.5 183.5t190 122t249 43q181 0 346 -53l-49 -227q-144 59 -291 59q-93 0 -167 -39t-115.5 -113.5t-41.5 -177.5q0 -149 80 -233t213 -84q71 0 127 18v334h264v-508q-200 -77 -413 -77q-159 0 -284.5 60t-196 179.5t-70.5 290.5z" />
<glyph unicode="h" horiz-adv-x="1300" d="M160 0v1065h264v-408h453v408h264v-1065h-264v430h-453v-430h-264z" />
<glyph unicode="i" horiz-adv-x="584" d="M160 0v1065h264v-1065h-264z" />
<glyph unicode="j" horiz-adv-x="670" d="M43 0v227q50 -16 102 -16q56 0 81.5 31.5t25.5 105.5v717h264v-725q0 -176 -79.5 -266t-260.5 -90q-64 0 -133 16z" />
<glyph unicode="k" horiz-adv-x="1159" d="M160 0v1065h264v-457l350 457h324l-410 -512l434 -553h-348l-350 483v-483h-264z" />
<glyph unicode="l" horiz-adv-x="813" d="M160 0v1065h264v-832h346v-233h-610z" />
<glyph unicode="m" horiz-adv-x="1671" d="M106 0l166 1065h332l174 -541q30 -93 51 -200h2q20 100 52 196l180 545h338l162 -1065h-281l-72 512q-19 145 -28 233h-2q-28 -123 -54 -210l-172 -535h-274l-154 494q-39 122 -65 247h-2q-5 -100 -25 -243l-63 -498h-265z" />
<glyph unicode="n" horiz-adv-x="1343" d="M160 0v1065h354l309 -508q61 -93 111 -203h2q-6 96 -6 262l-2 449h256v-1065h-355l-319 520q-52 85 -100 195h-2q6 -76 6 -189v-526h-254z" />
<glyph unicode="o" horiz-adv-x="1251" d="M72 520q0 127 45.5 231.5t125 178t183 113.5t217.5 40q116 0 213 -32.5t169.5 -99t113.5 -168.5t41 -238q0 -169 -78 -297t-209 -197t-289 -69q-127 0 -227 38t-168 109t-102.5 172t-34.5 219zM354 537q0 -72 16.5 -130.5t50 -101.5t83.5 -66.5t114 -23.5 q120 0 199.5 80.5t79.5 234.5q0 103 -33.5 175.5t-95.5 109.5t-143 37q-74 0 -136 -36.5t-98.5 -108t-36.5 -170.5z" />
<glyph unicode="p" horiz-adv-x="1038" d="M160 0v1065q141 6 377 6q140 0 238.5 -41.5t150 -122.5t51.5 -192q0 -118 -59.5 -206t-165 -135.5t-240.5 -47.5q-44 0 -88 4v-330h-264zM424 541q30 -6 82 -6q87 0 138.5 43.5t51.5 121.5q0 69 -46.5 114.5t-131.5 45.5q-69 0 -94 -2v-317z" />
<glyph unicode="q" horiz-adv-x="1251" d="M72 520q0 127 45.5 231.5t125 178t183 113.5t217.5 40q116 0 213 -32.5t169.5 -99t113.5 -168.5t41 -238q0 -169 -78 -297t-209 -197t-289 -69q-127 0 -227 38t-168 109t-102.5 172t-34.5 219zM354 537q0 -72 16.5 -130.5t50 -101.5t83.5 -66.5t114 -23.5 q120 0 199.5 80.5t79.5 234.5q0 103 -33.5 175.5t-95.5 109.5t-143 37q-74 0 -136 -36.5t-98.5 -108t-36.5 -170.5zM565 -119q58 6 111 6q77 0 139 -10t140.5 -28t134 -26.5t114.5 -8.5q72 0 133 10v-227q-79 -13 -151 -13q-69 0 -120 8t-134.5 27.5t-146.5 30t-126 10.5 q-44 0 -94 -6v227z" />
<glyph unicode="r" horiz-adv-x="1071" d="M160 0v1065q129 6 383 6q201 0 309.5 -77.5t108.5 -229.5q0 -79 -32 -141t-91 -103t-136 -59q25 -35 80 -117l236 -344h-322l-262 416h-10v-416h-264zM424 594q27 -4 88 -4q48 0 87 18t60 51.5t21 77.5q0 62 -47 97.5t-129 35.5q-30 0 -80 -4v-272z" />
<glyph unicode="s" horiz-adv-x="905" d="M92 737q0 160 118 254t333 94q76 0 194 -16l-8 -221q-46 13 -95.5 19.5t-101.5 6.5q-159 0 -159 -108q0 -48 77.5 -82.5t159.5 -67t140.5 -93.5t58.5 -173q0 -110 -57 -195t-166.5 -131.5t-253.5 -46.5q-104 0 -209 25l10 234q97 -39 225 -39q70 0 116 32t46 88 q0 51 -35.5 69t-156.5 64t-178.5 108t-57.5 179z" />
<glyph unicode="t" horiz-adv-x="899" d="M39 840v225h821v-225h-278v-840h-265v840h-278z" />
<glyph unicode="u" horiz-adv-x="1284" d="M154 375v690h264v-631q0 -120 56.5 -176.5t170.5 -56.5q117 0 171 62.5t54 180.5v621h260v-653q0 -124 -53 -220.5t-165.5 -153t-280.5 -56.5q-157 0 -265 47t-160 135.5t-52 210.5z" />
<glyph unicode="v" horiz-adv-x="1118" d="M8 1065h289l182 -494q44 -117 86 -284h2q31 110 46 160.5t40 123.5l185 496h272l-393 -1067h-311z" />
<glyph unicode="w" horiz-adv-x="1780" d="M25 1065h292l164 -549q24 -74 51 -203h3q18 93 49 199l172 553h284l172 -541q25 -80 54 -211h4q18 88 55 217l160 535h272l-321 -1065h-334l-160 518q-37 132 -59 236h-4q-35 -151 -62 -234l-158 -520h-311z" />
<glyph unicode="x" horiz-adv-x="1221" d="M47 0l393 526l-383 539h330l231 -340l230 340h303l-369 -524l394 -541h-345l-235 348l-231 -348h-318z" />
<glyph unicode="y" horiz-adv-x="1026" d="M4 1065h293l135 -272q59 -122 86 -197h2q18 48 92 207l138 262h272l-379 -719v-346h-264v342z" />
<glyph unicode="z" horiz-adv-x="1024" d="M111 0v205l395 536q54 72 67 88q-13 -1 -48 -1.5t-67 -0.5h-71h-264v238h780v-215l-414 -547q-42 -58 -45 -61q23 4 209 4h260v-246h-802z" />
<glyph unicode="{" horiz-adv-x="741" d="M55 543v196q76 5 119 24.5t64.5 66t21.5 131.5v178q0 230 86.5 341t286.5 111h43v-207q-69 0 -105.5 -20t-51.5 -70t-15 -151v-176q0 -156 -48.5 -231t-140.5 -93v-2q89 -14 139 -95t50 -237v-274q0 -102 15 -153t51.5 -71t105.5 -20v-211h-43q-133 0 -215 47.5 t-120 149.5t-38 260v276q0 123 -48.5 173.5t-156.5 56.5z" />
<glyph unicode="|" horiz-adv-x="565" d="M174 -512v2048h209v-2048h-209z" />
<glyph unicode="}" horiz-adv-x="737" d="M72 -209q69 0 106 20t52.5 73.5t15.5 150.5v274q0 158 49.5 238t138.5 94v2q-188 26 -188 318v182q0 96 -15.5 148.5t-52.5 72.5t-106 20v207h45q199 0 284.5 -110.5t85.5 -341.5v-172q0 -89 22 -136.5t65 -67t118 -24.5v-196q-107 -6 -156 -57t-49 -173v-276 q0 -158 -38 -260t-119 -149.5t-213 -47.5h-45v211z" />
<glyph unicode="~" horiz-adv-x="1174" d="M80 614q130 119 297 119q65 0 118 -15.5t113.5 -44t99 -42t87.5 -13.5q106 0 213 97l82 -189q-54 -63 -132.5 -100t-169.5 -37q-62 0 -112 14.5t-113 41.5t-110.5 43t-96.5 16q-57 0 -107 -23.5t-89 -60.5z" />
<glyph unicode="&#xa1;" horiz-adv-x="565" d="M127 1012q0 56 46.5 98.5t111.5 42.5q42 0 78.5 -17.5t57.5 -50t21 -73.5q0 -60 -43 -102t-114 -42q-70 0 -114 41.5t-44 102.5zM137 -78l29 877h229l33 -877h-291z" />
<glyph unicode="&#xa2;" horiz-adv-x="1071" d="M72 696q0 152 65.5 273t183 192.5t261.5 81.5v158h190v-158q131 -13 193 -37l-21 -223q-85 35 -172 41v-623q92 8 174 48l21 -220q-102 -36 -195 -47v-209h-190v199q-159 5 -272.5 62.5t-175.5 173t-62 288.5zM346 717q0 -143 60 -220t176 -94v617q-100 -13 -168 -95 t-68 -208z" />
<glyph unicode="&#xa3;" horiz-adv-x="999" d="M109 0v201q76 47 119 86t67 89.5t24 123.5q0 11 -12 143h-190v201h170q-3 22 -10.5 78t-10 87.5t-2.5 51.5q0 201 98 295t295 94q89 0 179 -16l-17 -215q-78 16 -133 16q-158 0 -158 -172q0 -43 21 -219h258v-201h-240q8 -52 8 -111q0 -97 -36 -170.5t-109 -140.5 q64 6 150 6h307v-227h-778z" />
<glyph unicode="&#xa4;" horiz-adv-x="1083" d="M55 84l142 174q-70 95 -70 252q0 152 80 252l-150 188l199 142l145 -199q67 27 148 27q72 0 131 -23l143 197l199 -146l-143 -182q57 -92 57 -236q0 -141 -76 -243l162 -203l-201 -145l-157 211q-72 -33 -152 -33q-63 0 -113 18l-141 -194zM354 520q0 -97 43.5 -155 t132.5 -58q49 0 88.5 23.5t64 73.5t24.5 122q0 203 -179 203q-47 0 -87 -24.5t-63.5 -72t-23.5 -112.5z" />
<glyph unicode="&#xa5;" horiz-adv-x="1231" d="M45 1382h291l182 -376q59 -121 96 -232h4q31 91 113 258l178 350h281l-381 -749h254v-166h-318v-119h318v-168h-318v-180h-264v180h-317v168h317v119h-317v166h256z" />
<glyph unicode="&#xa7;" horiz-adv-x="1141" d="M86 877q0 79 26 166t71.5 170t103.5 149q82 95 181.5 147t229.5 52q86 0 166 -13l-10 -213q-78 23 -164 23q-88 0 -126 -32.5t-38 -102.5q0 -63 86.5 -144t191 -175t176 -218t71.5 -289q0 -76 -25.5 -163t-71.5 -169.5t-104 -146.5q-90 -103 -190 -152t-240 -49 q-101 0 -154 11l10 219q68 -25 170 -25q162 0 162 123q0 69 -97 164t-191 183.5t-164 208.5t-70 276zM322 930q0 -116 52.5 -197.5t162.5 -184.5t170 -175.5t81 -175.5q27 81 27 153q0 121 -56.5 209.5t-173.5 196t-169.5 168.5t-71.5 157q-22 -74 -22 -151z" />
<glyph unicode="&#xa8;" horiz-adv-x="1118" d="M193 1327q0 59 41 100t100 41q38 0 71 -19t51.5 -51t18.5 -71q0 -57 -42 -99t-99 -42t-99 42t-42 99zM606 1327q0 60 41.5 100.5t100.5 40.5q38 0 71 -19t51.5 -51t18.5 -71q0 -38 -19 -70.5t-51.5 -51.5t-70.5 -19q-57 0 -99.5 41.5t-42.5 99.5z" />
<glyph unicode="&#xa9;" horiz-adv-x="1561" d="M78 682q0 189 94 350.5t255.5 255.5t350.5 94q190 0 351 -93t255.5 -254.5t94.5 -350.5q0 -144 -53.5 -270.5t-151.5 -224.5t-226.5 -151.5t-269.5 -53.5q-143 0 -271.5 53.5t-225.5 150.5t-150 224.5t-53 269.5zM274 684q0 -135 68 -252t183.5 -185.5t252.5 -68.5 q102 0 194.5 39t162 109t107.5 162t38 194q0 137 -67 254t-182.5 184.5t-252.5 67.5q-136 0 -252.5 -67.5t-184 -184.5t-67.5 -252zM444 676q0 103 38.5 187.5t120 135t202.5 50.5q90 0 168 -31l-29 -174q-54 35 -129 35q-153 0 -153 -199q0 -178 143 -178q83 0 143 28 l35 -168q-87 -40 -209 -40q-155 0 -242.5 95.5t-87.5 258.5z" />
<glyph unicode="&#xaa;" horiz-adv-x="815" d="M82 846q0 89 52.5 148t144 87.5t210.5 28.5v31q0 96 -118 96q-109 0 -226 -55l-18 176q128 45 276 45q157 0 225 -66.5t68 -171.5v-325v-59.5t0.5 -63t1.5 -51.5h-198q0 56 8 100l-2 2q-21 -50 -79.5 -85.5t-127.5 -35.5q-108 0 -162.5 54t-54.5 145zM102 354v209h609 v-209h-609zM279 874q0 -28 20.5 -46.5t54.5 -18.5q42 0 72.5 24t46.5 58t16 65v21q-109 0 -159.5 -24t-50.5 -79z" />
<glyph unicode="&#xab;" horiz-adv-x="1094" d="M86 508l225 401l203 -94l-178 -307l180 -299l-211 -98zM530 508l248 393l197 -98l-193 -295l195 -289l-205 -98z" />
<glyph unicode="&#xac;" horiz-adv-x="1143" d="M70 430v213h966v-518h-231v305h-735z" />
<glyph unicode="&#xad;" horiz-adv-x="684" d="M90 416v209h504v-209h-504z" />
<glyph unicode="&#xae;" horiz-adv-x="1155" d="M98 1090q0 128 64 236.5t175.5 171.5t240.5 63q98 0 185.5 -35t154 -100t103 -151.5t36.5 -184.5t-37 -184.5t-104 -151.5t-154 -101.5t-184 -36.5q-131 0 -241.5 62.5t-174.5 171t-64 240.5zM256 1092q0 -134 94 -230t228 -96q85 0 159 43t117 117.5t43 160.5 q0 85 -43 161t-116 120.5t-160 44.5q-88 0 -162 -43.5t-117 -118t-43 -159.5zM410 862v457h190q82 0 122 -33.5t40 -93.5q0 -102 -92 -129q11 -11 35 -55l67 -146h-147l-78 174h-15v-174h-122zM532 1120h23q35 0 53.5 16.5t18.5 41.5q0 47 -62 47h-33v-105z" />
<glyph unicode="&#xaf;" horiz-adv-x="705" d="M119 1229v190h444v-190h-444z" />
<glyph unicode="&#xb0;" horiz-adv-x="795" d="M86 1231q0 88 45 154t116.5 100.5t147.5 34.5q152 0 226.5 -79.5t74.5 -203.5q0 -90 -44 -156t-116 -100.5t-155 -34.5q-90 0 -156.5 34.5t-102.5 98.5t-36 152zM281 1233q0 -56 30 -88.5t80 -32.5q51 0 81 35.5t30 89.5q0 47 -28.5 83t-80.5 36q-49 0 -80.5 -34 t-31.5 -89z" />
<glyph unicode="&#xb1;" horiz-adv-x="1206" d="M98 545v215h381v379h248v-379h381v-215h-381v-383h-248v383h-381zM109 57h989v-219h-989v219z" />
<glyph unicode="&#xb4;" horiz-adv-x="805" d="M184 1303l359 225l108 -180l-377 -195z" />
<glyph unicode="&#xb5;" horiz-adv-x="1251" d="M152 -516v1534h260v-621q0 -108 47 -156t137 -48q72 0 127 42.5t86 118.5t31 172v492h260v-1018h-248q0 96 10 170h-2q-31 -75 -100 -129.5t-185 -54.5q-54 0 -96.5 14.5t-66.5 38.5l-4 -2q4 -39 4 -201v-352h-260z" />
<glyph unicode="&#xb6;" horiz-adv-x="1309" d="M135 977q0 122 60 213.5t170.5 141.5t252.5 50h590v-211h-133v-1368h-221v1368h-147v-1368h-220v770q-116 22 -194.5 76t-118 137t-39.5 191z" />
<glyph unicode="&#xb8;" horiz-adv-x="819" d="M252 -410q119 78 119 185q0 61 -35 121h239q39 -75 39 -140q0 -162 -239 -266z" />
<glyph unicode="&#xba;" horiz-adv-x="872" d="M78 1022q0 114 48.5 201t132.5 134.5t187 47.5q158 0 250 -88t92 -281q0 -114 -48.5 -202.5t-133.5 -136.5t-192 -48q-152 0 -244 90.5t-92 282.5zM119 354v209h629v-209h-629zM291 1028q0 -86 33 -141.5t104 -55.5q65 0 106 48.5t41 152.5q0 189 -141 189 q-61 0 -102 -47.5t-41 -145.5z" />
<glyph unicode="&#xbb;" horiz-adv-x="1094" d="M117 801l205 100l241 -389l-248 -391l-196 96l192 295zM578 813l210 96l220 -397l-226 -401l-202 96l178 305z" />
<glyph unicode="&#xbf;" horiz-adv-x="813" d="M74 264q0 86 37.5 143t112.5 121.5t106.5 102.5t31.5 98q0 37 -14 78h260q27 -67 27 -125q0 -71 -36.5 -122.5t-109.5 -108.5t-97.5 -80.5t-24.5 -65.5q0 -65 88.5 -109t224.5 -44q10 1 18.5 1.5t22.5 0.5l-33 -234q-297 0 -455.5 96t-158.5 248zM311 1020q0 57 47 99 t113 42q67 0 112.5 -39.5t45.5 -101.5q0 -60 -43.5 -101.5t-114.5 -41.5q-69 0 -114.5 41.5t-45.5 101.5z" />
<glyph unicode="&#xc0;" horiz-adv-x="1282" d="M2 0l483 1382h301l494 -1382h-295l-96 283h-522l-97 -283h-268zM307 1665l113 182l356 -225l-92 -152zM434 494h385l-129 362q-44 129 -63 221h-2q-29 -122 -66 -231z" />
<glyph unicode="&#xc1;" horiz-adv-x="1282" d="M2 0l483 1382h301l494 -1382h-295l-96 283h-522l-97 -283h-268zM434 494h385l-129 362q-44 129 -63 221h-2q-29 -122 -66 -231zM448 1622l359 225l108 -180l-377 -195z" />
<glyph unicode="&#xc2;" horiz-adv-x="1282" d="M2 0l483 1382h301l494 -1382h-295l-96 283h-522l-97 -283h-268zM330 1636l307 180l314 -178l-84 -154l-232 129l-227 -129zM434 494h385l-129 362q-44 129 -63 221h-2q-29 -122 -66 -231z" />
<glyph unicode="&#xc3;" horiz-adv-x="1282" d="M2 0l483 1382h301l494 -1382h-295l-96 283h-522l-97 -283h-268zM276 1705q99 89 211 89q51 0 86.5 -13t83.5 -40t73.5 -37.5t65.5 -10.5q80 0 146 66l51 -174q-37 -34 -95.5 -60t-115.5 -26q-55 0 -89 12t-76.5 36.5t-74.5 38t-75 13.5q-72 0 -140 -68zM434 494h385 l-129 362q-44 129 -63 221h-2q-29 -122 -66 -231z" />
<glyph unicode="&#xc4;" horiz-adv-x="1282" d="M2 0l483 1382h301l494 -1382h-295l-96 283h-522l-97 -283h-268zM285 1628q0 59 41 100t100 41q38 0 71 -19t51.5 -51t18.5 -71q0 -57 -42 -99t-99 -42t-99 42t-42 99zM434 494h385l-129 362q-44 129 -63 221h-2q-29 -122 -66 -231zM698 1628q0 60 41.5 100.5t100.5 40.5 q38 0 71 -19t51.5 -51t18.5 -71q0 -38 -19 -70.5t-51.5 -51.5t-70.5 -19q-57 0 -99.5 41.5t-42.5 99.5z" />
<glyph unicode="&#xc5;" horiz-adv-x="1282" d="M2 0l483 1382h301l494 -1382h-295l-96 283h-522l-97 -283h-268zM377 1583q0 70 34.5 126.5t95 89t130.5 32.5t130 -32t95 -89t35 -127q0 -68 -35.5 -126t-95 -91t-129.5 -33t-130.5 32t-95 90t-34.5 128zM434 494h385l-129 362q-44 129 -63 221h-2q-29 -122 -66 -231z M528 1583q0 -45 33 -77t76 -32t74.5 32.5t31.5 76.5t-30.5 76.5t-75.5 32.5t-77 -32t-32 -77z" />
<glyph unicode="&#xc6;" horiz-adv-x="1608" d="M-78 0l684 1382h873v-223h-478v-340h461v-217h-461v-375h492v-227h-748v305h-403l-147 -305h-273zM432 514h313v645h-4q-59 -155 -127 -289z" />
<glyph unicode="&#xc7;" horiz-adv-x="1159" d="M78 647q0 223 77.5 391t233.5 261.5t381 93.5q154 0 293 -37l-29 -242q-137 41 -278 41q-126 0 -212.5 -58.5t-129.5 -163.5t-43 -241q0 -150 43 -255.5t133.5 -159.5t226.5 -54q65 0 138 16t130 42l31 -238q-86 -30 -173.5 -45.5t-182.5 -15.5q-174 0 -297.5 53 t-199 146.5t-109 212.5t-33.5 253zM469 -410q119 78 119 185q0 61 -35 121h239q39 -75 39 -140q0 -162 -239 -266z" />
<glyph unicode="&#xc8;" horiz-adv-x="1010" d="M143 0v1382h752v-223h-485v-340h460v-217h-460v-375h485v-227h-752zM223 1665l113 182l356 -225l-92 -152z" />
<glyph unicode="&#xc9;" horiz-adv-x="1010" d="M143 0v1382h752v-223h-485v-340h460v-217h-460v-375h485v-227h-752zM334 1622l359 225l108 -180l-377 -195z" />
<glyph unicode="&#xca;" horiz-adv-x="1010" d="M143 0v1382h752v-223h-485v-340h460v-217h-460v-375h485v-227h-752zM207 1636l307 180l314 -178l-84 -154l-232 129l-227 -129z" />
<glyph unicode="&#xcb;" horiz-adv-x="1010" d="M143 0v1382h752v-223h-485v-340h460v-217h-460v-375h485v-227h-752zM166 1628q0 59 41 100t100 41q38 0 71 -19t51.5 -51t18.5 -71q0 -57 -42 -99t-99 -42t-99 42t-42 99zM579 1628q0 60 41.5 100.5t100.5 40.5q38 0 71 -19t51.5 -51t18.5 -71q0 -38 -19 -70.5 t-51.5 -51.5t-70.5 -19q-57 0 -99.5 41.5t-42.5 99.5z" />
<glyph unicode="&#xcc;" horiz-adv-x="553" d="M8 1665l113 182l356 -225l-92 -152zM143 0v1382h267v-1382h-267z" />
<glyph unicode="&#xcd;" horiz-adv-x="553" d="M76 1622l356 223l109 -178l-375 -194zM143 0v1382h267v-1382h-267z" />
<glyph unicode="&#xce;" horiz-adv-x="553" d="M-29 1634l308 183l313 -179l-82 -155l-234 131l-227 -131zM143 0v1382h267v-1382h-267z" />
<glyph unicode="&#xcf;" horiz-adv-x="553" d="M-74 1630q0 60 42 101t100 41q38 0 70 -19t51.5 -52t19.5 -71t-19 -70.5t-51.5 -51.5t-70.5 -19q-57 0 -99.5 41.5t-42.5 99.5zM143 0v1382h267v-1382h-267zM340 1630q0 38 19 71t51.5 52t70.5 19t71 -19t52 -52t19 -71t-19 -70.5t-52 -51.5t-71 -19q-57 0 -99 42t-42 99 z" />
<glyph unicode="&#xd1;" horiz-adv-x="1432" d="M143 0v1382h346l385 -659q62 -104 170 -326q-14 196 -14 555v430h258v-1382h-344l-405 698q-72 127 -150 297q3 -44 6.5 -145.5t4.5 -171t1 -184.5v-494h-258zM348 1705q99 89 211 89q51 0 86.5 -13t83.5 -40t73.5 -37.5t65.5 -10.5q80 0 146 66l51 -174 q-37 -34 -95.5 -60t-115.5 -26q-55 0 -89 12t-76.5 36.5t-74.5 38t-75 13.5q-72 0 -140 -68z" />
<glyph unicode="&#xd2;" d="M68 674q0 167 52.5 303.5t145 231.5t215.5 145.5t262 50.5q140 0 256 -42.5t199.5 -128.5t128.5 -217t45 -306q0 -167 -52 -304.5t-144 -232.5t-215.5 -146t-264.5 -51q-155 0 -273.5 48t-197.5 140t-118 219.5t-39 289.5zM352 702q0 -147 39.5 -256t121 -168t202.5 -59 q69 0 135.5 27.5t120.5 86t85 148t31 209.5q0 154 -42.5 260t-125 160.5t-200.5 54.5q-74 0 -140 -29.5t-117 -87.5t-80.5 -145t-29.5 -201zM442 1665l113 182l356 -225l-92 -152z" />
<glyph unicode="&#xd3;" d="M68 674q0 167 52.5 303.5t145 231.5t215.5 145.5t262 50.5q140 0 256 -42.5t199.5 -128.5t128.5 -217t45 -306q0 -167 -52 -304.5t-144 -232.5t-215.5 -146t-264.5 -51q-155 0 -273.5 48t-197.5 140t-118 219.5t-39 289.5zM352 702q0 -147 39.5 -256t121 -168t202.5 -59 q69 0 135.5 27.5t120.5 86t85 148t31 209.5q0 154 -42.5 260t-125 160.5t-200.5 54.5q-74 0 -140 -29.5t-117 -87.5t-80.5 -145t-29.5 -201zM575 1622l359 225l108 -180l-377 -195z" />
<glyph unicode="&#xd4;" d="M68 674q0 167 52.5 303.5t145 231.5t215.5 145.5t262 50.5q140 0 256 -42.5t199.5 -128.5t128.5 -217t45 -306q0 -167 -52 -304.5t-144 -232.5t-215.5 -146t-264.5 -51q-155 0 -273.5 48t-197.5 140t-118 219.5t-39 289.5zM352 702q0 -147 39.5 -256t121 -168t202.5 -59 q69 0 135.5 27.5t120.5 86t85 148t31 209.5q0 154 -42.5 260t-125 160.5t-200.5 54.5q-74 0 -140 -29.5t-117 -87.5t-80.5 -145t-29.5 -201zM428 1636l307 180l314 -178l-84 -154l-232 129l-227 -129z" />
<glyph unicode="&#xd5;" d="M68 674q0 167 52.5 303.5t145 231.5t215.5 145.5t262 50.5q140 0 256 -42.5t199.5 -128.5t128.5 -217t45 -306q0 -167 -52 -304.5t-144 -232.5t-215.5 -146t-264.5 -51q-155 0 -273.5 48t-197.5 140t-118 219.5t-39 289.5zM352 702q0 -147 39.5 -256t121 -168t202.5 -59 q69 0 135.5 27.5t120.5 86t85 148t31 209.5q0 154 -42.5 260t-125 160.5t-200.5 54.5q-74 0 -140 -29.5t-117 -87.5t-80.5 -145t-29.5 -201zM371 1712q99 89 211 89q51 0 86.5 -13t83.5 -40t73.5 -37.5t65.5 -10.5q80 0 146 66l51 -174q-37 -34 -95.5 -60t-115.5 -26 q-55 0 -89 12t-76.5 36.5t-74.5 38t-75 13.5q-72 0 -140 -68z" />
<glyph unicode="&#xd6;" d="M68 674q0 167 52.5 303.5t145 231.5t215.5 145.5t262 50.5q140 0 256 -42.5t199.5 -128.5t128.5 -217t45 -306q0 -167 -52 -304.5t-144 -232.5t-215.5 -146t-264.5 -51q-155 0 -273.5 48t-197.5 140t-118 219.5t-39 289.5zM352 702q0 -147 39.5 -256t121 -168t202.5 -59 q69 0 135.5 27.5t120.5 86t85 148t31 209.5q0 154 -42.5 260t-125 160.5t-200.5 54.5q-74 0 -140 -29.5t-117 -87.5t-80.5 -145t-29.5 -201zM388 1628q0 59 41 100t100 41q38 0 71 -19t51.5 -51t18.5 -71q0 -57 -42 -99t-99 -42t-99 42t-42 99zM801 1628q0 60 41.5 100.5 t100.5 40.5q38 0 71 -19t51.5 -51t18.5 -71q0 -38 -19 -70.5t-51.5 -51.5t-70.5 -19q-57 0 -99.5 41.5t-42.5 99.5z" />
<glyph unicode="&#xd8;" d="M68 676q0 222 86 388t238.5 253.5t342.5 87.5q64 0 113 -8l67 192l193 -61l-66 -187q103 -48 174 -134t109.5 -215.5t38.5 -291.5q0 -218 -88 -382.5t-240 -252.5t-340 -88q-73 0 -127 11l-71 -203l-195 61l72 201q-154 79 -230.5 241.5t-76.5 387.5zM338 696 q0 -138 29.5 -234t97.5 -151l303 846q-16 2 -47 2q-45 0 -70 -4q-88 -13 -159 -69t-112.5 -156t-41.5 -234zM647 219q33 -6 101 -6q97 8 175 62t124.5 158.5t46.5 250.5q0 138 -35 242t-105 155z" />
<glyph unicode="&#xd9;" horiz-adv-x="1395" d="M143 479v903h267v-886q0 -144 63 -220.5t223 -76.5q105 0 168.5 31.5t93 100.5t29.5 189v862h264v-845q0 -140 -37.5 -244.5t-112 -175.5t-181.5 -105.5t-242 -34.5q-300 0 -417.5 137t-117.5 365zM393 1665l113 182l356 -225l-92 -152z" />
<glyph unicode="&#xda;" horiz-adv-x="1395" d="M143 479v903h267v-886q0 -144 63 -220.5t223 -76.5q105 0 168.5 31.5t93 100.5t29.5 189v862h264v-845q0 -140 -37.5 -244.5t-112 -175.5t-181.5 -105.5t-242 -34.5q-300 0 -417.5 137t-117.5 365zM528 1622l359 225l108 -180l-377 -195z" />
<glyph unicode="&#xdb;" horiz-adv-x="1395" d="M143 479v903h267v-886q0 -144 63 -220.5t223 -76.5q105 0 168.5 31.5t93 100.5t29.5 189v862h264v-845q0 -140 -37.5 -244.5t-112 -175.5t-181.5 -105.5t-242 -34.5q-300 0 -417.5 137t-117.5 365zM387 1636l307 180l314 -178l-84 -154l-232 129l-227 -129z" />
<glyph unicode="&#xdc;" horiz-adv-x="1395" d="M143 479v903h267v-886q0 -144 63 -220.5t223 -76.5q105 0 168.5 31.5t93 100.5t29.5 189v862h264v-845q0 -140 -37.5 -244.5t-112 -175.5t-181.5 -105.5t-242 -34.5q-300 0 -417.5 137t-117.5 365zM330 1628q0 59 41 100t100 41q38 0 71 -19t51.5 -51t18.5 -71 q0 -57 -42 -99t-99 -42t-99 42t-42 99zM743 1628q0 60 41.5 100.5t100.5 40.5q38 0 71 -19t51.5 -51t18.5 -71q0 -38 -19 -70.5t-51.5 -51.5t-70.5 -19q-57 0 -99.5 41.5t-42.5 99.5z" />
<glyph unicode="&#xdf;" horiz-adv-x="1264" d="M119 446v218h1024v-218h-1024z" />
<glyph unicode="&#xe0;" horiz-adv-x="1167" d="M33 0l395 1065h313l394 -1065h-291l-66 186h-411l-68 -186h-266zM305 1346l113 182l356 -225l-92 -152zM428 377h287l-92 252q-30 77 -52 157h-2q-22 -87 -47 -151z" />
<glyph unicode="&#xe1;" horiz-adv-x="1167" d="M33 0l395 1065h313l394 -1065h-291l-66 186h-411l-68 -186h-266zM387 1303l359 225l108 -180l-377 -195zM428 377h287l-92 252q-30 77 -52 157h-2q-22 -87 -47 -151z" />
<glyph unicode="&#xe2;" horiz-adv-x="1167" d="M33 0l395 1065h313l394 -1065h-291l-66 186h-411l-68 -186h-266zM274 1317l307 180l314 -178l-84 -154l-232 129l-227 -129zM428 377h287l-92 252q-30 77 -52 157h-2q-22 -87 -47 -151z" />
<glyph unicode="&#xe3;" horiz-adv-x="1167" d="M33 0l395 1065h313l394 -1065h-291l-66 186h-411l-68 -186h-266zM237 1386q99 89 211 89q51 0 86.5 -13t83.5 -40t73.5 -37.5t65.5 -10.5q80 0 146 66l51 -174q-37 -34 -95.5 -60t-115.5 -26q-55 0 -89 12t-76.5 36.5t-74.5 38t-75 13.5q-72 0 -140 -68zM428 377h287 l-92 252q-30 77 -52 157h-2q-22 -87 -47 -151z" />
<glyph unicode="&#xe4;" horiz-adv-x="1167" d="M33 0l395 1065h313l394 -1065h-291l-66 186h-411l-68 -186h-266zM230 1327q0 59 41 100t100 41q38 0 71 -19t51.5 -51t18.5 -71q0 -57 -42 -99t-99 -42t-99 42t-42 99zM428 377h287l-92 252q-30 77 -52 157h-2q-22 -87 -47 -151zM643 1327q0 60 41.5 100.5t100.5 40.5 q38 0 71 -19t51.5 -51t18.5 -71q0 -38 -19 -70.5t-51.5 -51.5t-70.5 -19q-57 0 -99.5 41.5t-42.5 99.5z" />
<glyph unicode="&#xe5;" horiz-adv-x="1167" d="M33 0l395 1065h313l394 -1065h-291l-66 186h-411l-68 -186h-266zM324 1258q0 70 34.5 126.5t95 89t130.5 32.5t130 -32t95 -89t35 -127q0 -68 -35.5 -126t-95 -91t-129.5 -33t-130.5 32t-95 90t-34.5 128zM428 377h287l-92 252q-30 77 -52 157h-2q-22 -87 -47 -151z M475 1258q0 -45 33 -77t76 -32t74.5 32.5t31.5 76.5t-30.5 76.5t-75.5 32.5t-77 -32t-32 -77z" />
<glyph unicode="&#xe6;" horiz-adv-x="1432" d="M-53 0l567 1065h780v-207h-383v-215h371v-199h-371v-233h398v-211h-658v201h-323l-105 -201h-276zM416 381h235v455h-2q-48 -112 -96 -201z" />
<glyph unicode="&#xe7;" horiz-adv-x="975" d="M78 508q0 116 36 220t108 183t183.5 124.5t258.5 45.5q119 0 217 -26l-23 -232q-102 35 -209 35q-90 0 -155 -40.5t-98.5 -115.5t-33.5 -170q0 -151 80 -232t220 -81q119 0 204 43l23 -233q-137 -45 -279 -45q-130 0 -229.5 36t-167 105t-101.5 165.5t-34 217.5z M354 -402q119 78 119 185q0 61 -35 121h239q39 -75 39 -140q0 -162 -239 -266z" />
<glyph unicode="&#xe8;" horiz-adv-x="940" d="M160 0v1065h655v-207h-391v-213h373v-201h-373v-233h391v-211h-655zM207 1346l113 182l356 -225l-92 -152z" />
<glyph unicode="&#xe9;" horiz-adv-x="940" d="M160 0v1065h655v-207h-391v-213h373v-201h-373v-233h391v-211h-655zM295 1303l359 225l108 -180l-377 -195z" />
<glyph unicode="&#xea;" horiz-adv-x="940" d="M160 0v1065h655v-207h-391v-213h373v-201h-373v-233h391v-211h-655zM170 1317l307 180l314 -178l-84 -154l-232 129l-227 -129z" />
<glyph unicode="&#xeb;" horiz-adv-x="940" d="M160 0v1065h655v-207h-391v-213h373v-201h-373v-233h391v-211h-655zM160 1327q0 59 41 100t100 41q38 0 71 -19t51.5 -51t18.5 -71q0 -57 -42 -99t-99 -42t-99 42t-42 99zM573 1327q0 60 41.5 100.5t100.5 40.5q38 0 71 -19t51.5 -51t18.5 -71q0 -38 -19 -70.5 t-51.5 -51.5t-70.5 -19q-57 0 -99.5 41.5t-42.5 99.5z" />
<glyph unicode="&#xec;" horiz-adv-x="584" d="M27 1346l110 182l359 -225l-93 -152zM160 0v1065h264v-1065h-264z" />
<glyph unicode="&#xed;" horiz-adv-x="584" d="M113 1303l356 225l109 -180l-375 -195zM160 0v1065h264v-1065h-264z" />
<glyph unicode="&#xee;" horiz-adv-x="584" d="M-23 1317l308 180l315 -178l-84 -154l-231 129l-228 -129zM160 0v1065h264v-1065h-264z" />
<glyph unicode="&#xef;" horiz-adv-x="584" d="M-55 1327q0 59 41 100t100 41q38 0 71 -19t51.5 -51t18.5 -71q0 -57 -42 -99t-99 -42t-99 42t-42 99zM160 0v1065h264v-1065h-264zM358 1327q0 60 41.5 100.5t100.5 40.5q38 0 71 -19t51.5 -51t18.5 -71q0 -57 -42 -99t-99 -42t-99.5 41.5t-42.5 99.5z" />
<glyph unicode="&#xf1;" horiz-adv-x="1343" d="M160 0v1065h354l309 -508q61 -93 111 -203h2q-6 96 -6 262l-2 449h256v-1065h-355l-319 520q-52 85 -100 195h-2q6 -76 6 -189v-526h-254zM307 1386q99 89 211 89q51 0 86.5 -13t83.5 -40t73.5 -37.5t65.5 -10.5q80 0 146 66l51 -174q-37 -34 -95.5 -60t-115.5 -26 q-55 0 -89 12t-76.5 36.5t-74.5 38t-75 13.5q-72 0 -140 -68z" />
<glyph unicode="&#xf2;" horiz-adv-x="1251" d="M72 520q0 127 45.5 231.5t125 178t183 113.5t217.5 40q116 0 213 -32.5t169.5 -99t113.5 -168.5t41 -238q0 -169 -78 -297t-209 -197t-289 -69q-127 0 -227 38t-168 109t-102.5 172t-34.5 219zM350 1346l113 182l356 -225l-92 -152zM354 537q0 -72 16.5 -130.5t50 -101.5 t83.5 -66.5t114 -23.5q120 0 199.5 80.5t79.5 234.5q0 103 -33.5 175.5t-95.5 109.5t-143 37q-74 0 -136 -36.5t-98.5 -108t-36.5 -170.5z" />
<glyph unicode="&#xf3;" horiz-adv-x="1251" d="M72 520q0 127 45.5 231.5t125 178t183 113.5t217.5 40q116 0 213 -32.5t169.5 -99t113.5 -168.5t41 -238q0 -169 -78 -297t-209 -197t-289 -69q-127 0 -227 38t-168 109t-102.5 172t-34.5 219zM354 537q0 -72 16.5 -130.5t50 -101.5t83.5 -66.5t114 -23.5 q120 0 199.5 80.5t79.5 234.5q0 103 -33.5 175.5t-95.5 109.5t-143 37q-74 0 -136 -36.5t-98.5 -108t-36.5 -170.5zM465 1303l359 225l108 -180l-377 -195z" />
<glyph unicode="&#xf4;" horiz-adv-x="1251" d="M72 520q0 127 45.5 231.5t125 178t183 113.5t217.5 40q116 0 213 -32.5t169.5 -99t113.5 -168.5t41 -238q0 -169 -78 -297t-209 -197t-289 -69q-127 0 -227 38t-168 109t-102.5 172t-34.5 219zM324 1317l307 180l314 -178l-84 -154l-232 129l-227 -129zM354 537 q0 -72 16.5 -130.5t50 -101.5t83.5 -66.5t114 -23.5q120 0 199.5 80.5t79.5 234.5q0 103 -33.5 175.5t-95.5 109.5t-143 37q-74 0 -136 -36.5t-98.5 -108t-36.5 -170.5z" />
<glyph unicode="&#xf5;" horiz-adv-x="1251" d="M72 520q0 127 45.5 231.5t125 178t183 113.5t217.5 40q116 0 213 -32.5t169.5 -99t113.5 -168.5t41 -238q0 -169 -78 -297t-209 -197t-289 -69q-127 0 -227 38t-168 109t-102.5 172t-34.5 219zM276 1386q99 89 211 89q51 0 86.5 -13t83.5 -40t73.5 -37.5t65.5 -10.5 q80 0 146 66l51 -174q-37 -34 -95.5 -60t-115.5 -26q-55 0 -89 12t-76.5 36.5t-74.5 38t-75 13.5q-72 0 -140 -68zM354 537q0 -72 16.5 -130.5t50 -101.5t83.5 -66.5t114 -23.5q120 0 199.5 80.5t79.5 234.5q0 103 -33.5 175.5t-95.5 109.5t-143 37q-74 0 -136 -36.5 t-98.5 -108t-36.5 -170.5z" />
<glyph unicode="&#xf6;" horiz-adv-x="1251" d="M72 520q0 127 45.5 231.5t125 178t183 113.5t217.5 40q116 0 213 -32.5t169.5 -99t113.5 -168.5t41 -238q0 -169 -78 -297t-209 -197t-289 -69q-127 0 -227 38t-168 109t-102.5 172t-34.5 219zM287 1327q0 59 41 100t100 41q38 0 71 -19t51.5 -51t18.5 -71q0 -57 -42 -99 t-99 -42t-99 42t-42 99zM354 537q0 -72 16.5 -130.5t50 -101.5t83.5 -66.5t114 -23.5q120 0 199.5 80.5t79.5 234.5q0 103 -33.5 175.5t-95.5 109.5t-143 37q-74 0 -136 -36.5t-98.5 -108t-36.5 -170.5zM700 1327q0 60 41.5 100.5t100.5 40.5q38 0 71 -19t51.5 -51t18.5 -71 q0 -38 -19 -70.5t-51.5 -51.5t-70.5 -19q-57 0 -99.5 41.5t-42.5 99.5z" />
<glyph unicode="&#xf7;" horiz-adv-x="1239" d="M98 418v221h1043v-221h-1043zM459 117q0 66 46.5 112.5t112.5 46.5q68 0 114 -46t46 -113q0 -66 -46 -113t-114 -47q-66 0 -112.5 47.5t-46.5 112.5zM459 938q0 66 46 114t113 48q68 0 114 -47.5t46 -114.5q0 -66 -46 -113t-114 -47q-66 0 -112.5 47.5t-46.5 112.5z" />
<glyph unicode="&#xf8;" horiz-adv-x="1210" d="M55 520q0 127 46 232.5t123.5 178t180.5 112.5t216 40q40 0 79 -6l54 154l168 -55l-50 -140q83 -36 146.5 -103t98 -163.5t34.5 -224.5q0 -169 -77.5 -297t-207.5 -197t-284 -69q-49 0 -84 8l-60 -166l-168 55l56 154q-88 41 -148.5 110t-91.5 164.5t-31 212.5zM324 537 q0 -180 92 -254l211 571q-28 0 -76 -4q-63 -9 -115 -49t-82 -106.5t-30 -157.5zM569 215q46 0 88 6q103 16 164.5 95.5t61.5 213.5q0 89 -25.5 156.5t-75.5 104.5z" />
<glyph unicode="&#xf9;" horiz-adv-x="1284" d="M154 375v690h264v-631q0 -120 56.5 -176.5t170.5 -56.5q117 0 171 62.5t54 180.5v621h260v-653q0 -124 -53 -220.5t-165.5 -153t-280.5 -56.5q-157 0 -265 47t-160 135.5t-52 210.5zM342 1346l113 182l356 -225l-92 -152z" />
<glyph unicode="&#xfa;" horiz-adv-x="1284" d="M154 375v690h264v-631q0 -120 56.5 -176.5t170.5 -56.5q117 0 171 62.5t54 180.5v621h260v-653q0 -124 -53 -220.5t-165.5 -153t-280.5 -56.5q-157 0 -265 47t-160 135.5t-52 210.5zM481 1303l359 225l108 -180l-377 -195z" />
<glyph unicode="&#xfb;" horiz-adv-x="1284" d="M154 375v690h264v-631q0 -120 56.5 -176.5t170.5 -56.5q117 0 171 62.5t54 180.5v621h260v-653q0 -124 -53 -220.5t-165.5 -153t-280.5 -56.5q-157 0 -265 47t-160 135.5t-52 210.5zM328 1317l307 180l314 -178l-84 -154l-232 129l-227 -129z" />
<glyph unicode="&#xfc;" horiz-adv-x="1284" d="M154 375v690h264v-631q0 -120 56.5 -176.5t170.5 -56.5q117 0 171 62.5t54 180.5v621h260v-653q0 -124 -53 -220.5t-165.5 -153t-280.5 -56.5q-157 0 -265 47t-160 135.5t-52 210.5zM283 1327q0 59 41 100t100 41q38 0 71 -19t51.5 -51t18.5 -71q0 -57 -42 -99t-99 -42 t-99 42t-42 99zM696 1327q0 60 41.5 100.5t100.5 40.5q38 0 71 -19t51.5 -51t18.5 -71q0 -38 -19 -70.5t-51.5 -51.5t-70.5 -19q-57 0 -99.5 41.5t-42.5 99.5z" />
<glyph unicode="&#xff;" horiz-adv-x="1026" d="M4 1065h293l135 -272q59 -122 86 -197h2q18 48 92 207l138 262h272l-379 -719v-346h-264v342zM150 1327q0 59 41 100t100 41q38 0 71 -19t51.5 -51t18.5 -71q0 -57 -42 -99t-99 -42t-99 42t-42 99zM563 1327q0 60 41.5 100.5t100.5 40.5q38 0 71 -19t51.5 -51t18.5 -71 q0 -38 -19 -70.5t-51.5 -51.5t-70.5 -19q-57 0 -99.5 41.5t-42.5 99.5z" />
<glyph unicode="&#x152;" horiz-adv-x="1679" d="M70 676q0 216 86.5 380t235.5 251.5t329 87.5q72 0 152 -6.5t120 -6.5h572v-223h-486v-340h461v-217h-461v-375h486v-227h-561q-60 0 -161 -8t-159 -8q-203 0 -340.5 85t-205.5 242t-68 365zM348 698q0 -146 39 -252.5t120 -165.5t208 -59q61 0 108 10v920q-47 8 -108 8 q-102 0 -186.5 -55.5t-132.5 -160.5t-48 -245z" />
<glyph unicode="&#x153;" horiz-adv-x="1479" d="M70 520q0 126 41.5 227.5t115 175t170.5 113t207 39.5q59 0 176.5 -5t137.5 -5h438v-207h-393v-215h372v-199h-372v-233h393v-211h-428q-44 0 -179 -6t-176 -6q-124 0 -219 38t-158 109t-94.5 168t-31.5 217zM350 537q0 -144 64 -230t194 -86q50 0 92 12v601 q-47 10 -94 10q-70 0 -128.5 -36t-93 -106t-34.5 -165z" />
<glyph unicode="&#x178;" horiz-adv-x="1149" d="M6 1382h291l182 -397q54 -119 94 -229h5q11 33 29.5 77t42.5 97t38 82l174 370h283l-440 -893v-489h-267v487zM218 1628q0 59 41 100t100 41q38 0 71 -19t51.5 -51t18.5 -71q0 -57 -42 -99t-99 -42t-99 42t-42 99zM631 1628q0 60 41.5 100.5t100.5 40.5q38 0 71 -19 t51.5 -51t18.5 -71q0 -38 -19 -70.5t-51.5 -51.5t-70.5 -19q-57 0 -99.5 41.5t-42.5 99.5z" />
<glyph unicode="&#x2c6;" horiz-adv-x="872" d="M127 1317l307 180l314 -178l-84 -154l-232 129l-227 -129z" />
<glyph unicode="&#x2dc;" horiz-adv-x="956" d="M135 1386q99 89 211 89q51 0 86.5 -13t83.5 -40t73.5 -37.5t65.5 -10.5q80 0 146 66l51 -174q-37 -34 -95.5 -60t-115.5 -26q-55 0 -89 12t-76.5 36.5t-74.5 38t-75 13.5q-72 0 -140 -68z" />
<glyph unicode="&#x2000;" horiz-adv-x="923" />
<glyph unicode="&#x2001;" horiz-adv-x="1847" />
<glyph unicode="&#x2002;" horiz-adv-x="923" />
<glyph unicode="&#x2003;" horiz-adv-x="1847" />
<glyph unicode="&#x2004;" horiz-adv-x="615" />
<glyph unicode="&#x2005;" horiz-adv-x="461" />
<glyph unicode="&#x2006;" horiz-adv-x="307" />
<glyph unicode="&#x2007;" horiz-adv-x="307" />
<glyph unicode="&#x2008;" horiz-adv-x="230" />
<glyph unicode="&#x2009;" horiz-adv-x="369" />
<glyph unicode="&#x200a;" horiz-adv-x="102" />
<glyph unicode="&#x2010;" horiz-adv-x="684" d="M90 416v209h504v-209h-504z" />
<glyph unicode="&#x2011;" horiz-adv-x="684" d="M90 416v209h504v-209h-504z" />
<glyph unicode="&#x2012;" horiz-adv-x="684" d="M90 416v209h504v-209h-504z" />
<glyph unicode="&#x2013;" horiz-adv-x="1024" d="M0 477v230h1024v-230h-1024z" />
<glyph unicode="&#x2014;" horiz-adv-x="2048" d="M0 477v230h2048v-230h-2048z" />
<glyph unicode="&#x2018;" horiz-adv-x="547" d="M100 1092q0 64 27 139t85 154.5t153 162.5l106 -96q-123 -132 -123 -219q0 -52 39 -96q35 -41 35 -97q0 -60 -42.5 -105.5t-113.5 -45.5q-72 0 -119 56.5t-47 146.5z" />
<glyph unicode="&#x2019;" horiz-adv-x="547" d="M74 967q121 129 121 219q0 49 -39 96q-35 41 -35 94q0 63 43 108.5t115 45.5t118.5 -55.5t46.5 -147.5q0 -63 -27 -139t-84.5 -155.5t-152.5 -162.5z" />
<glyph unicode="&#x201a;" horiz-adv-x="547" d="M74 -258q121 129 121 217q0 50 -39 96q-35 44 -35 97q0 62 43 107.5t115 45.5t118.5 -55.5t46.5 -147.5q0 -63 -27 -138.5t-84.5 -155t-152.5 -162.5z" />
<glyph unicode="&#x201c;" horiz-adv-x="993" d="M100 1092q0 64 27 139t85 154.5t153 162.5l106 -96q-123 -132 -123 -219q0 -52 39 -96q35 -41 35 -97q0 -60 -42.5 -105.5t-113.5 -45.5q-72 0 -119 56.5t-47 146.5zM547 1092q0 64 27.5 138.5t86 155t150.5 162.5l109 -96q-123 -132 -123 -219q0 -52 39 -96 q34 -42 34 -95q0 -62 -42 -107.5t-113 -45.5q-73 0 -120.5 56.5t-47.5 146.5z" />
<glyph unicode="&#x201d;" horiz-adv-x="993" d="M74 967q121 129 121 219q0 49 -39 96q-35 41 -35 94q0 63 43 108.5t115 45.5t118.5 -55.5t46.5 -147.5q0 -63 -27 -139t-84.5 -155.5t-152.5 -162.5zM520 967q123 132 123 219q0 51 -39 96q-35 43 -35 94q0 62 43 108t113 46q73 0 120.5 -56.5t47.5 -146.5 q0 -101 -65 -220t-199 -237z" />
<glyph unicode="&#x201e;" horiz-adv-x="993" d="M74 -258q121 129 121 217q0 50 -39 96q-35 44 -35 97q0 62 43 107.5t115 45.5t118.5 -55.5t46.5 -147.5q0 -63 -27 -138.5t-84.5 -155t-152.5 -162.5zM520 -258q123 132 123 219q0 50 -39 94q-35 46 -35 97q0 61 43 107t113 46q73 0 120.5 -56.5t47.5 -146.5 q0 -64 -27.5 -138.5t-86 -155t-150.5 -162.5z" />
<glyph unicode="&#x2022;" horiz-adv-x="879" d="M129 604q0 81 40.5 151t110.5 111t152 41q81 0 151 -41t111 -111t41 -151q0 -82 -41 -152t-111 -110.5t-151 -40.5q-82 0 -152 40.5t-110.5 110.5t-40.5 152z" />
<glyph unicode="&#x2026;" horiz-adv-x="1481" d="M96 137q0 66 47 113t113 47q67 0 114.5 -46.5t47.5 -113.5t-47.5 -113.5t-114.5 -46.5q-66 0 -113 47t-47 113zM575 137q0 66 47 113t113 47t113 -47t47 -113t-47 -113t-113 -47t-113 47t-47 113zM1053 137q0 65 46.5 112.5t112.5 47.5t113 -47t47 -113t-47 -113 t-113 -47t-112.5 47.5t-46.5 112.5z" />
<glyph unicode="&#x202f;" horiz-adv-x="369" />
<glyph unicode="&#x2039;" horiz-adv-x="639" d="M84 508l235 399l201 -98l-186 -301l188 -295l-209 -98z" />
<glyph unicode="&#x203a;" horiz-adv-x="639" d="M117 807l209 100l231 -395l-238 -397l-200 96l186 301z" />
<glyph unicode="&#x205f;" horiz-adv-x="461" />
<glyph unicode="&#x2122;" horiz-adv-x="1411" d="M59 1225v157h459v-157h-133v-418h-186v418h-140zM535 807l92 575h223l70 -252l16 -83l14 79l70 256h223l96 -575h-194l-37 248l-10 96l-19 -88l-67 -256h-174l-68 262l-16 82l-4 -74l-39 -270h-176z" />
<glyph unicode="&#x25fc;" horiz-adv-x="1065" d="M0 0v1065h1065v-1065h-1065z" />
</font>
</defs>
</svg>
